<svg width="44" height="44" viewBox="0 0 44 44" fill="none" xmlns="http://www.w3.org/2000/svg">
<g id="Icons / Common / icon-cart">
<path id="Union" fill-rule="evenodd" clip-rule="evenodd" d="M18.195 15.7097C18.516 13.3101 20.1625 11.7129 21.8501 11.7129C23.5377 11.7129 25.1842 13.3101 25.5052 15.7097H18.195ZM16.4727 15.7097C16.8111 12.6256 18.9512 10 21.8501 10C24.749 10 26.8891 12.6256 27.2275 15.7097H30.7002V27.9857C30.7002 30.3507 28.7829 32.268 26.4179 32.268H17.2823C14.9173 32.268 13 30.3507 13 27.9857V15.7097H16.4727ZM14.7129 27.9857V17.4227H28.9873V27.9857C28.9873 29.4047 27.8369 30.5551 26.4179 30.5551H17.2823C15.8633 30.5551 14.7129 29.4047 14.7129 27.9857Z" fill="#262626"/>
</g>
</svg>
